<?xml version="1.0" ?><svg xmlns="http://www.w3.org/2000/svg" viewBox="0 0 32 32"><g id="_16_thumbs-down" data-name="16 thumbs-down"><path d="M26,3H24a3,3,0,0,0-2.81,2,2.84,2.84,0,0,0-.77-.22L11.71,3.52A5,5,0,0,0,6.16,7.26l-2.51,10A3,3,0,0,0,6.56,21h5l-1.09,2.9A3.77,3.77,0,0,0,14,29h.45l7.7-8.66A2.94,2.94,0,0,0,24,21h2a3,3,0,0,0,3-3V6A3,3,0,0,0,26,3ZM21,18.24a1,1,0,0,1-.25.66L13.59,27a1.73,1.73,0,0,1-1.05-.71,1.76,1.76,0,0,1-.2-1.63l1.09-2.91A2,2,0,0,0,11.56,19h-5a1,1,0,0,1-.79-.38,1,1,0,0,1-.18-.86l2.5-10A3,3,0,0,1,11,5.47a3.11,3.11,0,0,1,.43,0l8.71,1.24a1,1,0,0,1,.86,1V18.24ZM27,18a1,1,0,0,1-1,1H24a1,1,0,0,1-1-1V6a1,1,0,0,1,1-1h2a1,1,0,0,1,1,1Z"/></g></svg>