<?xml version="1.0" ?><svg xmlns="http://www.w3.org/2000/svg" viewBox="0 0 32 32"><g id="_17_thumbs-up" data-name="17 thumbs-up"><path d="M26,11H24a2.94,2.94,0,0,0-1.85.66L14.45,3H14a3.77,3.77,0,0,0-3.53,5.1L11.56,11h-5a3,3,0,0,0-2.91,3.73l2.5,10A5,5,0,0,0,11,28.53a5.81,5.81,0,0,0,.72-.05l8.71-1.25a2.84,2.84,0,0,0,.77-.22A3,3,0,0,0,24,29h2a3,3,0,0,0,3-3V14A3,3,0,0,0,26,11ZM20.14,25.26,11.43,26.5A3,3,0,0,1,8.1,24.26l-2.51-10a1,1,0,0,1,.18-.86A1,1,0,0,1,6.56,13h5a2,2,0,0,0,1.87-2.7L12.34,7.39a1.76,1.76,0,0,1,.2-1.63,1.73,1.73,0,0,1,1.05-.71l7.16,8.05h0a1,1,0,0,1,.25.66V24.27A1,1,0,0,1,20.14,25.26ZM27,26a1,1,0,0,1-1,1H24a1,1,0,0,1-1-1V14a1,1,0,0,1,1-1h2a1,1,0,0,1,1,1Z"/></g></svg>